<?xml version="1.0" encoding="UTF-8" standalone="no"?>
<!DOCTYPE svg PUBLIC "-//W3C//DTD SVG 1.1//EN"
 "http://www.w3.org/Graphics/SVG/1.1/DTD/svg11.dtd">
<!-- Generated by graphviz version 2.40.1 (20161225.0304)
 -->
<!-- Title: dependencies Pages: 1 -->
<svg width="718pt" height="284pt"
 viewBox="0.00 0.00 718.00 284.00" xmlns="http://www.w3.org/2000/svg" xmlns:xlink="http://www.w3.org/1999/xlink">
<g id="graph0" class="graph" transform="scale(1 1) rotate(0) translate(4 280)">
<title>dependencies</title>
<polygon fill="#ffffff" stroke="transparent" points="-4,4 -4,-280 714,-280 714,4 -4,4"/>
<text text-anchor="start" x="334.0091" y="-42.4" font-family="sans-serif" font-weight="bold" font-size="14.00" fill="#000000">Legend</text>
<polygon fill="#ffffb3" stroke="transparent" points="121,-10 121,-30 141,-30 141,-10 121,-10"/>
<text text-anchor="start" x="144.629" y="-15.4" font-family="sans-serif" font-size="14.00" fill="#000000"> &#160;Declarations</text>
<polygon fill="#8dd3c7" stroke="transparent" points="234,-10 234,-30 254,-30 254,-10 234,-10"/>
<text text-anchor="start" x="257.7251" y="-15.4" font-family="sans-serif" font-size="14.00" fill="#000000"> &#160;Module</text>
<polygon fill="#80b1d3" stroke="transparent" points="320,-10 320,-30 340,-30 340,-10 320,-10"/>
<text text-anchor="start" x="343.7812" y="-15.4" font-family="sans-serif" font-size="14.00" fill="#000000"> &#160;Bootstrap</text>
<polygon fill="#fdb462" stroke="transparent" points="417,-10 417,-30 437,-30 437,-10 417,-10"/>
<text text-anchor="start" x="440.6732" y="-15.4" font-family="sans-serif" font-size="14.00" fill="#000000"> &#160;Providers</text>
<polygon fill="#fb8072" stroke="transparent" points="513,-10 513,-30 533,-30 533,-10 513,-10"/>
<text text-anchor="start" x="536.7258" y="-15.4" font-family="sans-serif" font-size="14.00" fill="#000000"> &#160;Exports</text>
<g id="clust1" class="cluster">
<title>cluster_NgxFileUploadModule</title>
<polygon fill="none" stroke="#000000" stroke-dasharray="1,5" points="8,-70 8,-268 702,-268 702,-70 8,-70"/>
</g>
<g id="clust2" class="cluster">
<title>cluster_NgxFileUploadModule_declarations</title>
<polygon fill="none" stroke="#000000" points="16,-78 16,-130 694,-130 694,-78 16,-78"/>
</g>
<g id="clust8" class="cluster">
<title>cluster_NgxFileUploadModule_exports</title>
<polygon fill="none" stroke="#000000" points="65,-208 65,-260 645,-260 645,-208 65,-208"/>
</g>
<!-- NgxFileUploadComponent -->
<g id="node1" class="node">
<title>NgxFileUploadComponent</title>
<polygon fill="#ffffb3" stroke="#000000" points="686.4297,-122 517.5703,-122 517.5703,-86 686.4297,-86 686.4297,-122"/>
<text text-anchor="middle" x="602" y="-99.8" font-family="Times,serif" font-size="14.00" fill="#000000">NgxFileUploadComponent</text>
</g>
<!-- NgxFileUploadModule -->
<g id="node5" class="node">
<title>NgxFileUploadModule</title>
<polygon fill="#8dd3c7" stroke="#000000" points="441.147,-187 438.147,-191 417.147,-191 414.147,-187 294.853,-187 294.853,-151 441.147,-151 441.147,-187"/>
<text text-anchor="middle" x="368" y="-164.8" font-family="Times,serif" font-size="14.00" fill="#000000">NgxFileUploadModule</text>
</g>
<!-- NgxFileUploadComponent&#45;&gt;NgxFileUploadModule -->
<g id="edge1" class="edge">
<title>NgxFileUploadComponent&#45;&gt;NgxFileUploadModule</title>
<path fill="none" stroke="#000000" d="M577.375,-122.0225C577.375,-139.3734 577.375,-163 577.375,-163 577.375,-163 451.2292,-163 451.2292,-163"/>
<polygon fill="#000000" stroke="#000000" points="451.2292,-159.5001 441.2292,-163 451.2292,-166.5001 451.2292,-159.5001"/>
</g>
<!-- NgxFileUploadDirective -->
<g id="node2" class="node">
<title>NgxFileUploadDirective</title>
<polygon fill="#ffffb3" stroke="#000000" points="499.6797,-122 344.3203,-122 344.3203,-86 499.6797,-86 499.6797,-122"/>
<text text-anchor="middle" x="422" y="-99.8" font-family="Times,serif" font-size="14.00" fill="#000000">NgxFileUploadDirective</text>
</g>
<!-- NgxFileUploadDirective&#45;&gt;NgxFileUploadModule -->
<g id="edge2" class="edge">
<title>NgxFileUploadDirective&#45;&gt;NgxFileUploadModule</title>
<path fill="none" stroke="#000000" d="M392.8668,-122.1061C392.8668,-122.1061 392.8668,-140.991 392.8668,-140.991"/>
<polygon fill="#000000" stroke="#000000" points="389.3668,-140.9909 392.8668,-150.991 396.3668,-140.991 389.3668,-140.9909"/>
</g>
<!-- NgxFileUploadItemComponent -->
<g id="node3" class="node">
<title>NgxFileUploadItemComponent</title>
<polygon fill="#ffffb3" stroke="#000000" points="326.0856,-122 131.9144,-122 131.9144,-86 326.0856,-86 326.0856,-122"/>
<text text-anchor="middle" x="229" y="-99.8" font-family="Times,serif" font-size="14.00" fill="#000000">NgxFileUploadItemComponent</text>
</g>
<!-- NgxFileUploadItemComponent&#45;&gt;NgxFileUploadModule -->
<g id="edge3" class="edge">
<title>NgxFileUploadItemComponent&#45;&gt;NgxFileUploadModule</title>
<path fill="none" stroke="#000000" d="M310.3598,-122.1061C310.3598,-122.1061 310.3598,-140.991 310.3598,-140.991"/>
<polygon fill="#000000" stroke="#000000" points="306.8598,-140.9909 310.3598,-150.991 313.8598,-140.991 306.8598,-140.9909"/>
</g>
<!-- ToArrayPipe -->
<g id="node4" class="node">
<title>ToArrayPipe</title>
<polygon fill="#ffffb3" stroke="#000000" points="113.5828,-122 24.4172,-122 24.4172,-86 113.5828,-86 113.5828,-122"/>
<text text-anchor="middle" x="69" y="-99.8" font-family="Times,serif" font-size="14.00" fill="#000000">ToArrayPipe</text>
</g>
<!-- ToArrayPipe&#45;&gt;NgxFileUploadModule -->
<g id="edge4" class="edge">
<title>ToArrayPipe&#45;&gt;NgxFileUploadModule</title>
<path fill="none" stroke="#000000" d="M93.3743,-122.0225C93.3743,-139.3734 93.3743,-163 93.3743,-163 93.3743,-163 284.7661,-163 284.7661,-163"/>
<polygon fill="#000000" stroke="#000000" points="284.7661,-166.5001 294.7661,-163 284.7661,-159.5001 284.7661,-166.5001"/>
</g>
<!-- NgxFileUploadComponent  -->
<g id="node6" class="node">
<title>NgxFileUploadComponent </title>
<polygon fill="#fb8072" stroke="#000000" points="636.9292,-252 465.0708,-252 465.0708,-216 636.9292,-216 636.9292,-252"/>
<text text-anchor="middle" x="551" y="-229.8" font-family="Times,serif" font-size="14.00" fill="#000000">NgxFileUploadComponent </text>
</g>
<!-- NgxFileUploadModule&#45;&gt;NgxFileUploadComponent  -->
<g id="edge5" class="edge">
<title>NgxFileUploadModule&#45;&gt;NgxFileUploadComponent </title>
<path fill="none" stroke="#000000" stroke-dasharray="5,2" d="M441.366,-175C463.6275,-175 482.3126,-175 482.3126,-175 482.3126,-175 482.3126,-205.9775 482.3126,-205.9775"/>
<polygon fill="#000000" stroke="#000000" points="478.8127,-205.9774 482.3126,-215.9775 485.8127,-205.9775 478.8127,-205.9774"/>
</g>
<!-- NgxFileUploadDirective  -->
<g id="node7" class="node">
<title>NgxFileUploadDirective </title>
<polygon fill="#fb8072" stroke="#000000" points="447.1799,-252 288.8201,-252 288.8201,-216 447.1799,-216 447.1799,-252"/>
<text text-anchor="middle" x="368" y="-229.8" font-family="Times,serif" font-size="14.00" fill="#000000">NgxFileUploadDirective </text>
</g>
<!-- NgxFileUploadModule&#45;&gt;NgxFileUploadDirective  -->
<g id="edge6" class="edge">
<title>NgxFileUploadModule&#45;&gt;NgxFileUploadDirective </title>
<path fill="none" stroke="#000000" stroke-dasharray="5,2" d="M368,-187.1061C368,-187.1061 368,-205.991 368,-205.991"/>
<polygon fill="#000000" stroke="#000000" points="364.5001,-205.9909 368,-215.991 371.5001,-205.991 364.5001,-205.9909"/>
</g>
<!-- NgxFileUploadItemComponent  -->
<g id="node8" class="node">
<title>NgxFileUploadItemComponent </title>
<polygon fill="#fb8072" stroke="#000000" points="270.586,-252 73.414,-252 73.414,-216 270.586,-216 270.586,-252"/>
<text text-anchor="middle" x="172" y="-229.8" font-family="Times,serif" font-size="14.00" fill="#000000">NgxFileUploadItemComponent </text>
</g>
<!-- NgxFileUploadModule&#45;&gt;NgxFileUploadItemComponent  -->
<g id="edge7" class="edge">
<title>NgxFileUploadModule&#45;&gt;NgxFileUploadItemComponent </title>
<path fill="none" stroke="#000000" stroke-dasharray="5,2" d="M294.4308,-175C249.7943,-175 201.375,-175 201.375,-175 201.375,-175 201.375,-205.9775 201.375,-205.9775"/>
<polygon fill="#000000" stroke="#000000" points="197.8751,-205.9774 201.375,-215.9775 204.8751,-205.9775 197.8751,-205.9774"/>
</g>
</g>
</svg>
