<?xml version="1.0" encoding="UTF-8" standalone="no"?>
<!DOCTYPE svg PUBLIC "-//W3C//DTD SVG 1.1//EN"
 "http://www.w3.org/Graphics/SVG/1.1/DTD/svg11.dtd">
<!-- Generated by graphviz version 2.40.1 (20161225.0304)
 -->
<!-- Title: dependencies Pages: 1 -->
<svg width="642pt" height="284pt"
 viewBox="0.00 0.00 642.00 284.00" xmlns="http://www.w3.org/2000/svg" xmlns:xlink="http://www.w3.org/1999/xlink">
<g id="graph0" class="graph" transform="scale(1 1) rotate(0) translate(4 280)">
<title>dependencies</title>
<polygon fill="#ffffff" stroke="transparent" points="-4,4 -4,-280 638,-280 638,4 -4,4"/>
<text text-anchor="start" x="296.0091" y="-42.4" font-family="sans-serif" font-weight="bold" font-size="14.00" fill="#000000">Legend</text>
<polygon fill="#ffffb3" stroke="transparent" points="83,-10 83,-30 103,-30 103,-10 83,-10"/>
<text text-anchor="start" x="106.629" y="-15.4" font-family="sans-serif" font-size="14.00" fill="#000000"> &#160;Declarations</text>
<polygon fill="#8dd3c7" stroke="transparent" points="196,-10 196,-30 216,-30 216,-10 196,-10"/>
<text text-anchor="start" x="219.7251" y="-15.4" font-family="sans-serif" font-size="14.00" fill="#000000"> &#160;Module</text>
<polygon fill="#80b1d3" stroke="transparent" points="282,-10 282,-30 302,-30 302,-10 282,-10"/>
<text text-anchor="start" x="305.7812" y="-15.4" font-family="sans-serif" font-size="14.00" fill="#000000"> &#160;Bootstrap</text>
<polygon fill="#fdb462" stroke="transparent" points="379,-10 379,-30 399,-30 399,-10 379,-10"/>
<text text-anchor="start" x="402.6732" y="-15.4" font-family="sans-serif" font-size="14.00" fill="#000000"> &#160;Providers</text>
<polygon fill="#fb8072" stroke="transparent" points="475,-10 475,-30 495,-30 495,-10 475,-10"/>
<text text-anchor="start" x="498.7258" y="-15.4" font-family="sans-serif" font-size="14.00" fill="#000000"> &#160;Exports</text>
<g id="clust1" class="cluster">
<title>cluster_NgxFileUploadModule</title>
<polygon fill="none" stroke="#000000" stroke-dasharray="1,5" points="8,-70 8,-268 626,-268 626,-70 8,-70"/>
</g>
<g id="clust2" class="cluster">
<title>cluster_NgxFileUploadModule_declarations</title>
<polygon fill="none" stroke="#000000" points="24,-78 24,-130 613,-130 613,-78 24,-78"/>
</g>
<g id="clust8" class="cluster">
<title>cluster_NgxFileUploadModule_exports</title>
<polygon fill="none" stroke="#000000" points="16,-208 16,-260 618,-260 618,-208 16,-208"/>
</g>
<!-- FileSizePipe -->
<g id="node1" class="node">
<title>FileSizePipe</title>
<polygon fill="#ffffb3" stroke="#000000" points="605.2689,-122 518.7311,-122 518.7311,-86 605.2689,-86 605.2689,-122"/>
<text text-anchor="middle" x="562" y="-99.8" font-family="Times,serif" font-size="14.00" fill="#000000">FileSizePipe</text>
</g>
<!-- NgxFileUploadModule -->
<g id="node5" class="node">
<title>NgxFileUploadModule</title>
<polygon fill="#8dd3c7" stroke="#000000" points="352.147,-187 349.147,-191 328.147,-191 325.147,-187 205.853,-187 205.853,-151 352.147,-151 352.147,-187"/>
<text text-anchor="middle" x="279" y="-164.8" font-family="Times,serif" font-size="14.00" fill="#000000">NgxFileUploadModule</text>
</g>
<!-- FileSizePipe&#45;&gt;NgxFileUploadModule -->
<g id="edge1" class="edge">
<title>FileSizePipe&#45;&gt;NgxFileUploadModule</title>
<path fill="none" stroke="#000000" d="M576.8781,-122.2667C576.8781,-140.5552 576.8781,-166 576.8781,-166 576.8781,-166 362.2507,-166 362.2507,-166"/>
<polygon fill="#000000" stroke="#000000" points="362.2507,-162.5001 352.2507,-166 362.2507,-169.5001 362.2507,-162.5001"/>
</g>
<!-- UploadFileDirective -->
<g id="node2" class="node">
<title>UploadFileDirective</title>
<polygon fill="#ffffb3" stroke="#000000" points="500.573,-122 369.427,-122 369.427,-86 500.573,-86 500.573,-122"/>
<text text-anchor="middle" x="435" y="-99.8" font-family="Times,serif" font-size="14.00" fill="#000000">UploadFileDirective</text>
</g>
<!-- UploadFileDirective&#45;&gt;NgxFileUploadModule -->
<g id="edge2" class="edge">
<title>UploadFileDirective&#45;&gt;NgxFileUploadModule</title>
<path fill="none" stroke="#000000" d="M456.8455,-122.0091C456.8455,-138.0494 456.8455,-159 456.8455,-159 456.8455,-159 362.3634,-159 362.3634,-159"/>
<polygon fill="#000000" stroke="#000000" points="362.3634,-155.5001 352.3634,-159 362.3633,-162.5001 362.3634,-155.5001"/>
</g>
<!-- UploadItemComponent -->
<g id="node3" class="node">
<title>UploadItemComponent</title>
<polygon fill="#ffffb3" stroke="#000000" points="351.2007,-122 202.7993,-122 202.7993,-86 351.2007,-86 351.2007,-122"/>
<text text-anchor="middle" x="277" y="-99.8" font-family="Times,serif" font-size="14.00" fill="#000000">UploadItemComponent</text>
</g>
<!-- UploadItemComponent&#45;&gt;NgxFileUploadModule -->
<g id="edge3" class="edge">
<title>UploadItemComponent&#45;&gt;NgxFileUploadModule</title>
<path fill="none" stroke="#000000" d="M278.3885,-122.1061C278.3885,-122.1061 278.3885,-140.991 278.3885,-140.991"/>
<polygon fill="#000000" stroke="#000000" points="274.8886,-140.9909 278.3885,-150.991 281.8886,-140.991 274.8886,-140.9909"/>
</g>
<!-- UploadViewComponent -->
<g id="node4" class="node">
<title>UploadViewComponent</title>
<polygon fill="#ffffb3" stroke="#000000" points="184.3627,-122 31.6373,-122 31.6373,-86 184.3627,-86 184.3627,-122"/>
<text text-anchor="middle" x="108" y="-99.8" font-family="Times,serif" font-size="14.00" fill="#000000">UploadViewComponent</text>
</g>
<!-- UploadViewComponent&#45;&gt;NgxFileUploadModule -->
<g id="edge4" class="edge">
<title>UploadViewComponent&#45;&gt;NgxFileUploadModule</title>
<path fill="none" stroke="#000000" d="M130.6438,-122.0225C130.6438,-139.3734 130.6438,-163 130.6438,-163 130.6438,-163 195.6911,-163 195.6911,-163"/>
<polygon fill="#000000" stroke="#000000" points="195.6912,-166.5001 205.6911,-163 195.6911,-159.5001 195.6912,-166.5001"/>
</g>
<!-- FileSizePipe  -->
<g id="node6" class="node">
<title>FileSizePipe </title>
<polygon fill="#fb8072" stroke="#000000" points="610.269,-252 519.731,-252 519.731,-216 610.269,-216 610.269,-252"/>
<text text-anchor="middle" x="565" y="-229.8" font-family="Times,serif" font-size="14.00" fill="#000000">FileSizePipe </text>
</g>
<!-- NgxFileUploadModule&#45;&gt;FileSizePipe  -->
<g id="edge5" class="edge">
<title>NgxFileUploadModule&#45;&gt;FileSizePipe </title>
<path fill="none" stroke="#000000" stroke-dasharray="5,2" d="M352.2512,-173C432.0176,-173 548.3719,-173 548.3719,-173 548.3719,-173 548.3719,-205.698 548.3719,-205.698"/>
<polygon fill="#000000" stroke="#000000" points="544.872,-205.698 548.3719,-215.698 551.872,-205.698 544.872,-205.698"/>
</g>
<!-- UploadFileDirective  -->
<g id="node7" class="node">
<title>UploadFileDirective </title>
<polygon fill="#fb8072" stroke="#000000" points="502.0737,-252 367.9263,-252 367.9263,-216 502.0737,-216 502.0737,-252"/>
<text text-anchor="middle" x="435" y="-229.8" font-family="Times,serif" font-size="14.00" fill="#000000">UploadFileDirective </text>
</g>
<!-- NgxFileUploadModule&#45;&gt;UploadFileDirective  -->
<g id="edge6" class="edge">
<title>NgxFileUploadModule&#45;&gt;UploadFileDirective </title>
<path fill="none" stroke="#000000" stroke-dasharray="5,2" d="M352.3576,-180C383.6772,-180 413.1545,-180 413.1545,-180 413.1545,-180 413.1545,-205.7181 413.1545,-205.7181"/>
<polygon fill="#000000" stroke="#000000" points="409.6546,-205.718 413.1545,-215.7181 416.6546,-205.7181 409.6546,-205.718"/>
</g>
<!-- UploadItemComponent  -->
<g id="node8" class="node">
<title>UploadItemComponent </title>
<polygon fill="#fb8072" stroke="#000000" points="349.7009,-252 198.2991,-252 198.2991,-216 349.7009,-216 349.7009,-252"/>
<text text-anchor="middle" x="274" y="-229.8" font-family="Times,serif" font-size="14.00" fill="#000000">UploadItemComponent </text>
</g>
<!-- NgxFileUploadModule&#45;&gt;UploadItemComponent  -->
<g id="edge7" class="edge">
<title>NgxFileUploadModule&#45;&gt;UploadItemComponent </title>
<path fill="none" stroke="#000000" stroke-dasharray="5,2" d="M277.7635,-187.1061C277.7635,-187.1061 277.7635,-205.991 277.7635,-205.991"/>
<polygon fill="#000000" stroke="#000000" points="274.2636,-205.9909 277.7635,-215.991 281.2636,-205.991 274.2636,-205.9909"/>
</g>
<!-- UploadViewComponent  -->
<g id="node9" class="node">
<title>UploadViewComponent </title>
<polygon fill="#fb8072" stroke="#000000" points="180.363,-252 23.637,-252 23.637,-216 180.363,-216 180.363,-252"/>
<text text-anchor="middle" x="102" y="-229.8" font-family="Times,serif" font-size="14.00" fill="#000000">UploadViewComponent </text>
</g>
<!-- NgxFileUploadModule&#45;&gt;UploadViewComponent  -->
<g id="edge8" class="edge">
<title>NgxFileUploadModule&#45;&gt;UploadViewComponent </title>
<path fill="none" stroke="#000000" stroke-dasharray="5,2" d="M205.5929,-175C149.2743,-175 81.1062,-175 81.1062,-175 81.1062,-175 81.1062,-205.9775 81.1062,-205.9775"/>
<polygon fill="#000000" stroke="#000000" points="77.6063,-205.9774 81.1062,-215.9775 84.6063,-205.9775 77.6063,-205.9774"/>
</g>
</g>
</svg>
