<?xml version="1.0" encoding="UTF-8" standalone="no"?>
<!DOCTYPE svg PUBLIC "-//W3C//DTD SVG 1.1//EN"
 "http://www.w3.org/Graphics/SVG/1.1/DTD/svg11.dtd">
<!-- Generated by graphviz version 2.40.1 (20161225.0304)
 -->
<!-- Title: dependencies Pages: 1 -->
<svg width="620pt" height="284pt"
 viewBox="0.00 0.00 620.00 284.00" xmlns="http://www.w3.org/2000/svg" xmlns:xlink="http://www.w3.org/1999/xlink">
<g id="graph0" class="graph" transform="scale(1 1) rotate(0) translate(4 280)">
<title>dependencies</title>
<polygon fill="#ffffff" stroke="transparent" points="-4,4 -4,-280 616,-280 616,4 -4,4"/>
<text text-anchor="start" x="285.0091" y="-42.4" font-family="sans-serif" font-weight="bold" font-size="14.00" fill="#000000">Legend</text>
<polygon fill="#ffffb3" stroke="transparent" points="72,-10 72,-30 92,-30 92,-10 72,-10"/>
<text text-anchor="start" x="95.629" y="-15.4" font-family="sans-serif" font-size="14.00" fill="#000000"> &#160;Declarations</text>
<polygon fill="#8dd3c7" stroke="transparent" points="185,-10 185,-30 205,-30 205,-10 185,-10"/>
<text text-anchor="start" x="208.7251" y="-15.4" font-family="sans-serif" font-size="14.00" fill="#000000"> &#160;Module</text>
<polygon fill="#80b1d3" stroke="transparent" points="271,-10 271,-30 291,-30 291,-10 271,-10"/>
<text text-anchor="start" x="294.7812" y="-15.4" font-family="sans-serif" font-size="14.00" fill="#000000"> &#160;Bootstrap</text>
<polygon fill="#fdb462" stroke="transparent" points="368,-10 368,-30 388,-30 388,-10 368,-10"/>
<text text-anchor="start" x="391.6732" y="-15.4" font-family="sans-serif" font-size="14.00" fill="#000000"> &#160;Providers</text>
<polygon fill="#fb8072" stroke="transparent" points="464,-10 464,-30 484,-30 484,-10 464,-10"/>
<text text-anchor="start" x="487.7258" y="-15.4" font-family="sans-serif" font-size="14.00" fill="#000000"> &#160;Exports</text>
<g id="clust1" class="cluster">
<title>cluster_NgxFileUploadModule</title>
<polygon fill="none" stroke="#000000" stroke-dasharray="1,5" points="8,-70 8,-268 604,-268 604,-70 8,-70"/>
</g>
<g id="clust2" class="cluster">
<title>cluster_NgxFileUploadModule_declarations</title>
<polygon fill="none" stroke="#000000" points="21,-78 21,-130 591,-130 591,-78 21,-78"/>
</g>
<g id="clust7" class="cluster">
<title>cluster_NgxFileUploadModule_exports</title>
<polygon fill="none" stroke="#000000" points="16,-208 16,-260 596,-260 596,-208 16,-208"/>
</g>
<!-- NgxFileUploadComponent -->
<g id="node1" class="node">
<title>NgxFileUploadComponent</title>
<polygon fill="#ffffb3" stroke="#000000" points="583.4297,-122 414.5703,-122 414.5703,-86 583.4297,-86 583.4297,-122"/>
<text text-anchor="middle" x="499" y="-99.8" font-family="Times,serif" font-size="14.00" fill="#000000">NgxFileUploadComponent</text>
</g>
<!-- NgxFileUploadModule -->
<g id="node4" class="node">
<title>NgxFileUploadModule</title>
<polygon fill="#8dd3c7" stroke="#000000" points="392.147,-187 389.147,-191 368.147,-191 365.147,-187 245.853,-187 245.853,-151 392.147,-151 392.147,-187"/>
<text text-anchor="middle" x="319" y="-164.8" font-family="Times,serif" font-size="14.00" fill="#000000">NgxFileUploadModule</text>
</g>
<!-- NgxFileUploadComponent&#45;&gt;NgxFileUploadModule -->
<g id="edge1" class="edge">
<title>NgxFileUploadComponent&#45;&gt;NgxFileUploadModule</title>
<path fill="none" stroke="#000000" d="M527.4882,-122.0225C527.4882,-139.3734 527.4882,-163 527.4882,-163 527.4882,-163 402.212,-163 402.212,-163"/>
<polygon fill="#000000" stroke="#000000" points="402.212,-159.5001 392.212,-163 402.2119,-166.5001 402.212,-159.5001"/>
</g>
<!-- NgxFileUploadDirective -->
<g id="node2" class="node">
<title>NgxFileUploadDirective</title>
<polygon fill="#ffffb3" stroke="#000000" points="396.6797,-122 241.3203,-122 241.3203,-86 396.6797,-86 396.6797,-122"/>
<text text-anchor="middle" x="319" y="-99.8" font-family="Times,serif" font-size="14.00" fill="#000000">NgxFileUploadDirective</text>
</g>
<!-- NgxFileUploadDirective&#45;&gt;NgxFileUploadModule -->
<g id="edge2" class="edge">
<title>NgxFileUploadDirective&#45;&gt;NgxFileUploadModule</title>
<path fill="none" stroke="#000000" d="M319,-122.1061C319,-122.1061 319,-140.991 319,-140.991"/>
<polygon fill="#000000" stroke="#000000" points="315.5001,-140.9909 319,-150.991 322.5001,-140.991 315.5001,-140.9909"/>
</g>
<!-- NgxFileUploadItemComponent -->
<g id="node3" class="node">
<title>NgxFileUploadItemComponent</title>
<polygon fill="#ffffb3" stroke="#000000" points="223.0856,-122 28.9144,-122 28.9144,-86 223.0856,-86 223.0856,-122"/>
<text text-anchor="middle" x="126" y="-99.8" font-family="Times,serif" font-size="14.00" fill="#000000">NgxFileUploadItemComponent</text>
</g>
<!-- NgxFileUploadItemComponent&#45;&gt;NgxFileUploadModule -->
<g id="edge3" class="edge">
<title>NgxFileUploadItemComponent&#45;&gt;NgxFileUploadModule</title>
<path fill="none" stroke="#000000" d="M157.5143,-122.0225C157.5143,-139.3734 157.5143,-163 157.5143,-163 157.5143,-163 235.8169,-163 235.8169,-163"/>
<polygon fill="#000000" stroke="#000000" points="235.817,-166.5001 245.8169,-163 235.8169,-159.5001 235.817,-166.5001"/>
</g>
<!-- NgxFileUploadComponent  -->
<g id="node5" class="node">
<title>NgxFileUploadComponent </title>
<polygon fill="#fb8072" stroke="#000000" points="587.9292,-252 416.0708,-252 416.0708,-216 587.9292,-216 587.9292,-252"/>
<text text-anchor="middle" x="502" y="-229.8" font-family="Times,serif" font-size="14.00" fill="#000000">NgxFileUploadComponent </text>
</g>
<!-- NgxFileUploadModule&#45;&gt;NgxFileUploadComponent  -->
<g id="edge4" class="edge">
<title>NgxFileUploadModule&#45;&gt;NgxFileUploadComponent </title>
<path fill="none" stroke="#000000" stroke-dasharray="5,2" d="M392.2489,-175C431.4543,-175 471.7618,-175 471.7618,-175 471.7618,-175 471.7618,-205.9775 471.7618,-205.9775"/>
<polygon fill="#000000" stroke="#000000" points="468.2619,-205.9774 471.7618,-215.9775 475.2619,-205.9775 468.2619,-205.9774"/>
</g>
<!-- NgxFileUploadDirective  -->
<g id="node6" class="node">
<title>NgxFileUploadDirective </title>
<polygon fill="#fb8072" stroke="#000000" points="398.1799,-252 239.8201,-252 239.8201,-216 398.1799,-216 398.1799,-252"/>
<text text-anchor="middle" x="319" y="-229.8" font-family="Times,serif" font-size="14.00" fill="#000000">NgxFileUploadDirective </text>
</g>
<!-- NgxFileUploadModule&#45;&gt;NgxFileUploadDirective  -->
<g id="edge5" class="edge">
<title>NgxFileUploadModule&#45;&gt;NgxFileUploadDirective </title>
<path fill="none" stroke="#000000" stroke-dasharray="5,2" d="M319,-187.1061C319,-187.1061 319,-205.991 319,-205.991"/>
<polygon fill="#000000" stroke="#000000" points="315.5001,-205.9909 319,-215.991 322.5001,-205.991 315.5001,-205.9909"/>
</g>
<!-- NgxFileUploadItemComponent  -->
<g id="node7" class="node">
<title>NgxFileUploadItemComponent </title>
<polygon fill="#fb8072" stroke="#000000" points="221.586,-252 24.414,-252 24.414,-216 221.586,-216 221.586,-252"/>
<text text-anchor="middle" x="123" y="-229.8" font-family="Times,serif" font-size="14.00" fill="#000000">NgxFileUploadItemComponent </text>
</g>
<!-- NgxFileUploadModule&#45;&gt;NgxFileUploadItemComponent  -->
<g id="edge6" class="edge">
<title>NgxFileUploadModule&#45;&gt;NgxFileUploadItemComponent </title>
<path fill="none" stroke="#000000" stroke-dasharray="5,2" d="M245.7008,-175C179.7791,-175 93.2357,-175 93.2357,-175 93.2357,-175 93.2357,-205.9775 93.2357,-205.9775"/>
<polygon fill="#000000" stroke="#000000" points="89.7358,-205.9774 93.2357,-215.9775 96.7358,-205.9775 89.7358,-205.9774"/>
</g>
</g>
</svg>
